<svg width="86" height="18" viewBox="0 0 86 18" fill="none" xmlns="http://www.w3.org/2000/svg">
<path d="M0 16.6448H3.19318V0.297607H0V16.6448Z" fill="#A7A8AA"/>
<path d="M5.48531 16.6448H8.34487V9.56737C8.34487 7.97078 9.51253 6.92227 11.2521 6.92227C12.9917 6.92227 14.1593 7.97078 14.1593 9.56737V16.6448H17.0189V9.23376C17.0189 6.32653 14.8504 4.39632 11.5857 4.39632C10.4181 4.39632 9.13125 4.87292 8.34487 5.61164V4.72994H5.48531V16.6448Z" fill="#A7A8AA"/>
<path d="M24.1831 16.9784C24.9695 16.9784 25.7797 16.8354 26.2086 16.6448V14.5954H24.1354C23.5158 14.5954 23.0869 14.1903 23.0869 13.5946V7.11291H26.0895V4.72994H23.0869V0.297607H20.2273V4.72994H18.321V7.11291H20.2273V13.5946C20.2273 15.6201 21.8001 16.9784 24.1831 16.9784Z" fill="#A7A8AA"/>
<path d="M33.4811 16.9784C36.3884 16.9784 38.8667 15.215 39.653 12.5937H36.7458C36.1977 13.7852 34.8871 14.5954 33.4811 14.5954C31.6224 14.5954 30.1926 13.3563 29.9305 11.4738H39.7007L39.939 11.2355V10.6874C39.939 6.92227 37.3654 4.39632 33.4811 4.39632C29.5969 4.39632 27.0233 6.92227 27.0233 10.6874C27.0233 14.4525 29.5969 16.9784 33.4811 16.9784ZM30.1211 9.09078C30.6692 7.61333 31.8845 6.77929 33.4811 6.77929C35.0777 6.77929 36.293 7.61333 36.8411 9.09078H30.1211Z" fill="#A7A8AA"/>
<path d="M41.6488 16.6448H44.5083V9.5912C44.5083 7.99461 45.7713 6.92227 47.6777 6.92227H48.6547V4.72994C48.3211 4.58696 47.8207 4.49164 47.3917 4.49164C46.2956 4.49164 45.1279 5.15887 44.5083 6.13589V4.72994H41.6488V16.6448Z" fill="#A7A8AA"/>
<path d="M61.2543 17.0144C62.6365 17.0144 64.2807 16.6093 65.4007 16.0136C66.2348 16.6093 67.3548 17.0144 68.2126 17.0144C68.5939 17.0144 69.285 16.8714 69.9284 16.6808V14.2502C68.8084 14.2502 67.9743 14.1549 67.8314 13.9881C68.999 12.5344 69.7616 10.3421 69.7616 8.48339C69.7616 3.38382 66.3539 0 61.2543 0C56.1548 0 52.7471 3.38382 52.7471 8.48339C52.7471 13.6068 56.1548 17.0144 61.2543 17.0144ZM61.2543 14.1549C58.0612 14.1549 55.9403 11.891 55.9403 8.48339C55.9403 5.09956 58.0612 2.85957 61.2543 2.85957C64.4475 2.85957 66.5684 5.09956 66.5684 8.48339C66.5684 11.891 64.4475 14.1549 61.2543 14.1549Z" fill="url(#paint0_linear_325_1470)"/>
<path d="M71.9405 16.6808H75.1337V9.72253H78.16L82.4732 16.6808H86L81.5439 9.48423C83.5217 8.98381 84.8562 7.19658 84.8562 5.02807C84.8562 2.21616 82.7354 0.333616 79.5422 0.333616H71.9405V16.6808ZM75.1337 6.86296V3.19318H79.5422C80.9958 3.19318 81.7345 4.09871 81.7345 5.02807C81.7345 5.9336 80.9958 6.86296 79.5422 6.86296H75.1337Z" fill="url(#paint1_linear_325_1470)"/>
<defs>
<linearGradient id="paint0_linear_325_1470" x1="58.0534" y1="2.23874" x2="97.7558" y2="9.65296" gradientUnits="userSpaceOnUse">
<stop stop-color="#00448B"/>
<stop offset="1" stop-color="#008FD3"/>
</linearGradient>
<linearGradient id="paint1_linear_325_1470" x1="58.0534" y1="2.23874" x2="97.7558" y2="9.65296" gradientUnits="userSpaceOnUse">
<stop stop-color="#00448B"/>
<stop offset="1" stop-color="#008FD3"/>
</linearGradient>
</defs>
</svg>
